# AST/ASF file generated using VICON BodyLanguage
# -----------------------------------------------
:version 1.10
:name VICON
:units
  mass 1.0
  length 0.45
  angle deg
:documentation
   .ast/.asf automatically generated from VICON data using
   VICON BodyBuilder and BodyLanguage model FoxedUp or BRILLIANT.MOD
:root
   order TX TY TZ RX RY RZ
   axis XYZ
   position 0 0 0  
   orientation 0 0 0 
:bonedata
  begin
     id 1 
     name lhipjoint
     direction 0.62366 -0.717238 0.310833 
     length 2.53602 
     axis 0 0 0  XYZ
  end
  begin
     id 2 
     name lfemur
     direction 0.34202 -0.939693 0  
     length 7.40817  
     axis 0 0 20  XYZ
    dof rx ry rz
    limits (-160.0 20.0)
           (-70.0 70.0)
           (-60.0 70.0)
  end
  begin
     id 3 
     name ltibia
     direction 0.34202 -0.939693 0   
     length 7.7045   
     axis 0 0 20   XYZ
    dof rx
    limits (-10.0 170.0)
  end
  begin
     id 4 
     name lfoot
     direction 0.0673888 -0.185149 0.980397   
     length 2.09456   
     axis -90 7.62852e-016 20   XYZ
    dof rx rz
    limits (-45.0 90.0)
           (-70.0 20.0)
  end
  begin
     id 5 
     name ltoes
     direction 1.53575e-011 -4.21994e-011 1   
     length 1.05543   
     axis -90 7.62852e-016 20   XYZ
    dof rx
    limits (-90.0 20.0)
  end
  begin
     id 6 
     name rhipjoint
     direction -0.489018 -0.800347 0.346851   
     length 2.27268  
     axis 0 0 0  XYZ 
  end
  begin
     id 7 
     name rfemur
     direction -0.34202 -0.939693 0   
     length 7.55487   
     axis 0 0 -20   XYZ
    dof rx ry rz
    limits (-160.0 20.0)
           (-70.0 70.0)
           (-70.0 60.0)
  end
  begin
     id 8 
     name rtibia
     direction -0.34202 -0.939693 0   
     length 7.78969   
     axis 0 0 -20   XYZ
    dof rx
    limits (-10.0 170.0)
 end
 begin
     id 9 
     name rfoot
     direction -0.0859318 -0.236096 0.967923   
     length 2.19143  
     axis -90 -7.62852e-016 -20   XYZ
    dof rx rz
    limits (-45.0 90.0)
           (-20.0 70.0)
  end
  begin
     id 10 
     name rtoes
     direction -1.53538e-011 -4.21989e-011 1   
     length 1.09845   
     axis -90 -7.62852e-016 -20   XYZ
    dof rx
    limits (-90.0 20.0)
  end
  begin
     id 11 
     name lowerback
     direction -0.00762546 0.998978 -0.0445553   
     length 1.98161   
     axis 0 0 0   XYZ
    dof rx ry rz
    limits (-20.0 45.0)
           (-30.0 30.0)
           (-30.0 30.0)
  end
  begin
     id 12 
     name upperback
     direction 0.0422361 0.998867 -0.0219156   
     length 1.97558   
     axis 0 0 0   XYZ
    dof rx ry rz
    limits (-20.0 45.0)
           (-30.0 30.0)
           (-30.0 30.0)
  end
  begin
     id 13 
     name thorax
     direction 0.0442465 0.999021 7.47603e-005   
     length 1.97799   
     axis 0 0 0   XYZ
    dof rx ry rz
    limits (-20.0 45.0)
           (-30.0 30.0)
           (-30.0 30.0)
  end
  begin
     id 14 
     name lowerneck
     direction 0.00312169 0.984641 0.174564   
     length 1.78995   
     axis 0 0 0   XYZ
    dof rx ry rz
    limits (-20.0 45.0)
           (-30.0 30.0)
           (-30.0 30.0)
  end
  begin
     id 15 
     name upperneck
     direction -0.0383028 0.985255 -0.166749   
     length 1.83053   
     axis 0 0 0   XYZ
    dof rx ry rz
    limits (-20.0 45.0)
           (-30.0 30.0)
           (-30.0 30.0)
  end
  begin
     id 16
     name head
     direction -0.0129546 0.997059 -0.0755386  
     length 1.84088  
     axis 0 0 0   XYZ
    dof rx ry rz
    limits (-20.0 45.0)
           (-30.0 30.0)
           (-30.0 30.0)
  end
  begin
     id 17 
     name lclavicle
     direction 0.912857 0.370519 -0.171488  
     length 3.51279  
     axis 0 0 0   XYZ
    dof ry rz
    limits (-20.0 10.0)
           (0.0 20.0)
  end
  begin
     id 18 
     name lhumerus
     direction 1 -4.48962e-011 3.64361e-027   
     length 4.95663   
     axis 180 -30 -90   XYZ
    dof rx ry rz
    limits (-60.0 90.0)
           (-90.0 90.0)
           (-90.0 90.0)
  end
  begin
     id 19
     name lradius
     direction 1 -4.48974e-011 5.97202e-027   
     length 3.38177   
     axis 180 -30 -90   XYZ
    dof rx
    limits (-10.0 170.0)
  end
  begin
     id 20
     name lwrist
     direction 1 -4.4896e-011 9.83288e-027   
     length 1.69088   
     axis -9.31221e-015 90 90   XYZ
    dof ry
    limits (-180.0 0.0)
 end
  begin
     id 21 
     name lhand
     direction 1 -4.4902e-011 1.96551e-026   
     length 0.662909   
     axis -1.25475e-014 90 90   XYZ
    dof rx rz
    limits (-90.0 90.0)
           (-45.0 45.0)
  end
  begin
     id 22 
     name lfingers
     direction 1 -4.48971e-011 3.93277e-026   
     length 0.534454   
     axis -2.50945e-014 90 90   XYZ
    dof rx
    limits (0.0 90.0)
  end
  begin
     id 23
     name lthumb
     direction 0.707107 -6.34933e-011 0.707107   
     length 0.767373   
     axis -90 45 -4.80359e-014   XYZ
    dof rx rz
    limits (-45.0 45.0)
           (-45.0 45.0)
  end
  begin
     id 24 
     name rclavicle
     direction -0.900919 0.395364 -0.178976   
     length 3.40627  
     axis 0 0 0   XYZ 
    dof ry rz
    limits (-10.0 20.0)
           (-20.0 0.0)
  end
  begin
     id 25 
     name rhumerus
     direction -1 -4.48969e-011 1.03875e-027  
     length 5.08365   
     axis 180 30 90   XYZ
    dof rx ry rz
    limits (-90.0 60.0)
           (-90.0 90.0)
           (-90.0 90.0)
  end
  begin
     id 26 
     name rradius
     direction -1 -4.48951e-011 5.02733e-027   
     length 3.35984   
     axis 180 30 90   XYZ
    dof rx
    limits (-10.0 170.0)
  end
  begin
     id 27 
     name rwrist
     direction -1 -4.49011e-011 9.82828e-027   
     length 1.67992   
     axis -9.31221e-015 -90 -90   XYZ
    dof ry
    limits (-180.0 0.0)
  end
  begin
     id 28
     name rhand
     direction -1 -4.48894e-011 1.96774e-026   
     length 0.820764   
     axis -1.25475e-014 -90 -90   XYZ
    dof rx rz
    limits (-90.0 90.0)
           (-45.0 45.0)
  end
  begin
     id 29
     name rfingers
     direction -1 -4.49095e-011 3.92833e-026   
     length 0.661721   
     axis -2.50945e-014 -90 -90   XYZ
    dof rx
    limits (0.0 90.0)
  end
  begin
     id 30
     name rthumb
     direction -0.707107 -6.34881e-011 0.707107   
     length 0.950103   
     axis -90 -45 4.80359e-014   XYZ
    dof rx rz
    limits (-45.0 45.0)
           (-45.0 45.0)
  end
:hierarchy
  begin
    root lhipjoint rhipjoint lowerback
    lhipjoint lfemur
    lfemur ltibia
    ltibia lfoot
    lfoot ltoes
    rhipjoint rfemur
    rfemur rtibia
    rtibia rfoot
    rfoot rtoes
    lowerback upperback
    upperback thorax
    thorax lowerneck lclavicle rclavicle
    lowerneck upperneck
    upperneck head
    lclavicle lhumerus
    lhumerus lradius
    lradius lwrist
    lwrist lhand lthumb
    lhand lfingers
    rclavicle rhumerus
    rhumerus rradius
    rradius rwrist
    rwrist rhand rthumb
    rhand rfingers
  end

#!OML:ASF I:\golf\golf\golf 2\Subject 1\2002-09-07\Subject1.ASF
:FULLY-SPECIFIED
:DEGREES
16
root -1.2448 18.1962 -5.48166 8.23319 3.25233 -5.19558
lowerback -4.65502 1.14377 0.20594
upperback -1.19528 1.47328 2.78273
thorax 1.31241 0.738294 2.82911
lowerneck -18.5903 2.5508 5.5401
upperneck 33.8871 5.24069 -8.93752
head 15.4296 1.70974 -3.7898
rclavicle -3.05507e-014 -4.73108e-014
rhumerus -42.0374 31.067 -100.174
rradius 92.9177
rwrist -21.7623
rhand -7.39343 18.0722
rfingers 7.12502
rthumb 18.4924 -11.0688
lclavicle -3.05507e-014 -4.73108e-014
lhumerus -40.4752 -32.1512 102.088
lradius 85.8468
lwrist 15.6488
lhand -3.35147 31.0578
lfingers 7.12502
lthumb 22.3766 59.7819
rfemur -12.1197 -0.0149637 28.2001
rtibia 21.2159
rfoot -11.298 -5.85246
rtoes 5.135
lfemur -12.5845 3.00739 -13.5614
ltibia 23.3995
lfoot -11.7177 3.21179
ltoes 7.15093
17
root -1.23078 18.1969 -5.47634 8.28429 3.01439 -5.25673
lowerback -4.68179 1.22896 0.306179
upperback -1.26063 1.58441 2.70245
thorax 1.25999 0.794658 2.69556
lowerneck -18.2144 2.63039 5.69326
upperneck 34.2313 5.39116 -9.03202
head 15.5324 1.78922 -3.84709
rclavicle -6.06914e-015 6.16232e-015
rhumerus -42.1646 31.0212 -100.391
rradius 92.8794
rwrist -21.6597
rhand -7.2113 18.1464
rfingers 7.12502
rthumb 18.6676 -10.9779
lclavicle -6.06914e-015 6.16232e-015
lhumerus -40.6469 -32.0675 101.999
lradius 85.8535
lwrist 15.85
lhand -3.68277 31.2642
lfingers 7.12502
lthumb 22.0586 60.0261
rfemur -12.1733 0.0753671 28.1917
rtibia 21.2599
rfoot -11.322 -5.7282
rtoes 5.20149
lfemur -12.5228 3.23339 -13.5741
ltibia 23.3386
lfoot -11.9065 3.26287
ltoes 5.50128
18
root -1.21948 18.197 -5.48001 8.2622 2.97098 -5.28605
lowerback -4.54594 1.228 0.271691
upperback -1.28004 1.58753 2.72729
thorax 1.16238 0.796926 2.73676
lowerneck -18.0675 2.69041 5.59477
upperneck 34.7382 5.57734 -9.03945
head 15.7638 1.85609 -3.82412
rclavicle 4.72735e-015 4.57205e-015
rhumerus -42.2705 31.1928 -100.465
rradius 92.9297
rwrist -21.4132
rhand -7.40899 18.1101
rfingers 7.12502
rthumb 18.4774 -11.0324
lclavicle 4.72735e-015 4.57205e-015
lhumerus -40.689 -31.8595 101.935
lradius 85.8757
lwrist 15.9179
lhand -3.7532 31.4224
lfingers 7.12502
lthumb 21.9909 60.1922
rfemur -12.166 0.129861 28.1839
rtibia 21.2671
rfoot -11.2884 -5.7686
rtoes 5.16483
lfemur -12.4695 3.44974 -13.5948
ltibia 23.3017
lfoot -12.0464 3.17002
ltoes 4.15533
19
root -1.19795 18.1967 -5.48781 8.24094 3.23644 -5.35269
lowerback -4.51758 1.17472 0.374065
upperback -1.21962 1.5101 2.78106
thorax 1.21331 0.757715 2.73083
lowerneck -18.0732 2.70421 5.43817
upperneck 35.3349 5.71564 -9.03828
head 16.0736 1.89193 -3.80136
rclavicle 1.53685e-014 2.78299e-015
rhumerus -42.1515 31.343 -100.289
rradius 92.9495
rwrist -21.2713
rhand -7.48587 18.1974
rfingers 7.12502
rthumb 18.4035 -10.9521
lclavicle 1.53685e-014 2.78299e-015
lhumerus -40.4565 -31.8034 101.879
lradius 85.8388
lwrist 15.7609
lhand -3.72242 31.4646
lfingers 7.12502
lthumb 22.0205 60.231
rfemur -12.2079 -0.0230583 28.2085
rtibia 21.2714
rfoot -11.3157 -5.86814
rtoes 5.24923
lfemur -12.5264 3.17708 -13.5704
ltibia 23.2613
lfoot -11.9265 3.21104
ltoes 4.05407
20
root -1.19516 18.1957 -5.48132 8.45076 2.59917 -5.60082
lowerback -5.03436 1.46186 0.310692
upperback -1.09133 1.88127 2.8477
thorax 1.61292 0.940061 2.87406
lowerneck -17.9586 2.70209 5.54076
upperneck 35.6945 5.78568 -9.21066
head 16.2483 1.91502 -3.90363
rclavicle -1.67476e-014 2.28602e-014
rhumerus -41.8445 31.2395 -100.059
rradius 92.9156
rwrist -21.2365
rhand -7.31277 18.4892
rfingers 7.12502
rthumb 18.57 -10.6445
lclavicle -1.67476e-014 2.28602e-014
lhumerus -40.2271 -31.9898 101.78
lradius 85.8494
lwrist 15.6201
lhand -3.62428 31.5755
lfingers 7.12502
lthumb 22.1147 60.3308
rfemur -12.4076 0.471069 28.4114
rtibia 21.327
rfoot -11.3742 -5.741
rtoes 4.68863
lfemur -12.5665 3.97458 -13.3739
ltibia 23.2077
lfoot -11.9953 3.20751
ltoes 3.65686
21
root -1.17881 18.1954 -5.48833 8.43371 2.65718 -5.59708
lowerback -5.00013 1.48509 0.347774
upperback -1.03446 1.91061 2.78416
thorax 1.6543 0.954261 2.78942
lowerneck -17.7556 2.73696 5.69566
upperneck 36.0401 5.89149 -9.37086
head 16.4021 1.96434 -4.00349
rclavicle 4.96713e-014 3.28989e-014
rhumerus -41.7476 31.1366 -100.055
rradius 92.9084
rwrist -21.1628
rhand -7.41327 18.6567
rfingers 7.12502
rthumb 18.4733 -10.4861
lclavicle 4.96713e-014 3.28989e-014
lhumerus -40.21 -32.0773 101.662
lradius 85.9352
lwrist 15.5631
lhand -3.46464 31.727
lfingers 7.12502
lthumb 22.268 60.4641
rfemur -12.4596 0.563654 28.3537
rtibia 21.4255
rfoot -11.4346 -5.95704
rtoes 4.46563
lfemur -12.5453 3.9692 -13.4315
ltibia 23.1377
lfoot -11.9281 3.199
ltoes 3.31138
22
root -1.16104 18.1931 -5.49614 8.45063 2.77461 -5.44532
lowerback -4.85978 1.41776 0.249106
upperback -1.05258 1.83013 2.72539
thorax 1.55975 0.914379 2.77445
lowerneck -17.6227 2.83636 5.67102
upperneck 36.5243 6.12396 -9.40148
head 16.6512 2.05645 -3.99701
rclavicle 1.9866e-014 7.7526e-015
rhumerus -41.846 31.297 -100.157
rradius 92.9164
rwrist -21.1137
rhand -7.67744 18.6059
rfingers 7.12502
rthumb 18.2192 -10.5609
lclavicle 1.9866e-014 7.7526e-015
lhumerus -40.2176 -31.8727 101.556
lradius 85.9086
lwrist 15.3442
lhand -3.41527 31.4299
lfingers 7.12502
lthumb 22.3154 60.1613
rfemur -12.5432 0.637856 28.1325
rtibia 21.5105
rfoot -11.4186 -6.22463
rtoes 4.45448
lfemur -12.582 3.92244 -13.6544
ltibia 23.0844
lfoot -11.8934 3.16621
ltoes 3.10791
23
root -1.14092 18.191 -5.50676 8.42859 3.01802 -5.25914
lowerback -4.72458 1.30738 0.112358
upperback -0.979467 1.69073 2.70443
thorax 1.56241 0.843698 2.81888
lowerneck -17.616 2.93983 5.5745
upperneck 36.9397 6.38239 -9.44027
head 16.9015 2.1442 -3.97248
rclavicle -3.6154e-015 5.56597e-015
rhumerus -41.7578 31.5555 -100.061
rradius 92.9215
rwrist -21.089
rhand -7.72582 18.6848
rfingers 7.12502
rthumb 18.1726 -10.4863
lclavicle -3.6154e-015 5.56597e-015
lhumerus -39.9618 -31.7083 101.419
lradius 85.823
lwrist 15.1319
lhand -3.58104 31.0518
lfingers 7.12502
lthumb 22.1562 59.8022
rfemur -12.6163 0.44407 27.8852
rtibia 21.6122
rfoot -11.4093 -6.34684
rtoes 3.99176
lfemur -12.6255 3.67079 -13.9175
ltibia 23.0465
lfoot -11.9423 3.15082
ltoes 2.65617
24
root -1.12904 18.193 -5.50901 8.50591 2.89663 -5.3176
lowerback -4.83915 1.3634 0.036918
upperback -0.906964 1.76501 2.73971
thorax 1.69403 0.879066 2.90699
lowerneck -17.5443 2.99464 5.58139
upperneck 37.3448 6.53739 -9.49643
head 17.1258 2.20351 -3.99458
rclavicle -1.6114e-014 1.09332e-014
rhumerus -41.6562 31.6017 -99.9379
rradius 92.9149
rwrist -20.9999
rhand -7.57695 18.9604
rfingers 7.12502
rthumb 18.3159 -10.1973
lclavicle -1.6114e-014 1.09332e-014
lhumerus -39.8194 -31.7732 101.373
lradius 85.8162
lwrist 15.019
lhand -3.85151 30.9522
lfingers 7.12502
lthumb 21.8965 59.7332
rfemur -12.756 0.505959 27.8951
rtibia 21.7083
rfoot -11.4789 -6.26441
rtoes 3.76327
lfemur -12.6717 3.83766 -13.9153
ltibia 23.0123
lfoot -12.1407 3.13094
ltoes 1.56494
25
root -1.11691 18.1938 -5.51375 8.50524 2.89614 -5.40638
lowerback -4.76336 1.40441 0.0346052
upperback -0.915341 1.82128 2.74506
thorax 1.64 0.907703 2.91465
lowerneck -17.3493 3.00242 5.65932
upperneck 37.8481 6.6144 -9.56314
head 17.3697 2.2434 -4.05695
rclavicle -3.97569e-016 -1.76918e-014
rhumerus -41.7299 31.4983 -99.9649
rradius 92.9155
rwrist -20.9265
rhand -7.56748 19.1089
rfingers 7.12502
rthumb 18.325 -10.048
lclavicle -3.97569e-016 -1.76918e-014
lhumerus -39.9391 -31.9075 101.412
lradius 85.8423
lwrist 14.8787
lhand -3.91891 30.8786
lfingers 7.12502
lthumb 21.8318 59.6671
rfemur -12.8169 0.520847 27.9547
rtibia 21.7835
rfoot -11.5204 -6.26822
rtoes 3.82358
lfemur -12.6716 3.94252 -13.8503
ltibia 22.9974
lfoot -12.3341 2.97756
ltoes 0.994164
26
root -1.09988 18.1948 -5.52221 8.49762 2.98455 -5.29203
lowerback -4.64661 1.41662 0.0236401
upperback -0.883681 1.8414 2.61831
thorax 1.61013 0.917784 2.78802
lowerneck -17.1707 3.00667 5.70839
upperneck 38.2325 6.66322 -9.58074
head 17.5478 2.2739 -4.08968
rclavicle 1.41261e-014 9.54166e-015
rhumerus -41.7176 31.412 -100.042
rradius 92.9029
rwrist -20.8238
rhand -7.8262 19.1299
rfingers 7.12502
rthumb 18.0761 -10.0502
lclavicle 1.41261e-014 9.54166e-015
lhumerus -39.9463 -32.1122 101.311
lradius 85.8703
lwrist 14.7787
lhand -3.92804 30.8359
lfingers 7.12502
lthumb 21.8231 59.6255
rfemur -12.8716 0.320016 27.7889
rtibia 21.8446
rfoot -11.4678 -6.24411
rtoes 3.81804
lfemur -12.6871 3.89832 -14.0308
ltibia 22.9865
lfoot -12.4739 2.87293
ltoes 0.987648
27
root -1.08086 18.197 -5.53505 8.4957 3.1582 -5.09675
lowerback -4.56599 1.37494 -0.0887922
upperback -0.785332 1.79221 2.50642
thorax 1.66862 0.891625 2.73237
lowerneck -17.0716 3.02062 5.63736
upperneck 38.5135 6.71933 -9.50985
head 17.6806 2.29879 -4.05026
rclavicle 2.59662e-014 1.78906e-015
rhumerus -41.5414 31.4655 -100.02
rradius 92.8698
rwrist -20.7863
rhand -8.1223 19.1961
rfingers 7.12502
rthumb 17.7912 -10.01
lclavicle 2.59662e-014 1.78906e-015
lhumerus -39.7708 -32.2569 101.167
lradius 85.8616
lwrist 14.7549
lhand -4.04278 30.9627
lfingers 7.12502
lthumb 21.7129 59.765
rfemur -12.9359 0.122635 27.5313
rtibia 21.893
rfoot -11.3439 -6.32122
rtoes 3.70775
lfemur -12.7229 3.65392 -14.2989
ltibia 22.9538
lfoot -12.5395 2.92336
ltoes 1.22525
28
root -1.06434 18.1991 -5.54496 8.49758 3.29242 -5.04724
lowerback -4.54159 1.32962 -0.256593
upperback -0.692729 1.73767 2.54683
thorax 1.74649 0.862137 2.86644
lowerneck -16.9728 3.03621 5.53464
upperneck 38.8332 6.83376 -9.5317
head 17.8501 2.3303 -4.04028
rclavicle 6.36732e-015 1.09332e-014
rhumerus -41.4221 31.6092 -99.8921
rradius 92.8912
rwrist -20.7509
rhand -8.21447 19.2391
rfingers 7.12502
rthumb 17.7025 -9.97504
lclavicle 6.36732e-015 1.09332e-014
lhumerus -39.6034 -32.2035 101.152
lradius 85.8262
lwrist 14.7767
lhand -4.19315 31.1216
lfingers 7.12502
lthumb 21.5685 59.9405
rfemur -12.9963 0.109046 27.4374
rtibia 21.939
rfoot -11.2614 -6.51835
rtoes 3.12275
lfemur -12.7593 3.49575 -14.3862
ltibia 22.9209
lfoot -12.5623 2.9124
ltoes 1.3026
